# xmcd
#
# Track frame offsets:
#	150
#	9592
#	17770
#	26805
#	38713
#	47188
#	57303
#	67448
#	76025
#	85584
#	95716
#	106006
#	117481
#	129866
#	142741
#	155318
#	166878
#	176915
#	189918
#	201736
#	212824
#	224102
#	234043
#	244467
#	253713
#	262458
#	271435
#	281634
#	291799
#	302125
#
# Disc length: 4177 seconds
#
# Revision: 1
# Processed by: cddbd v1.5.2PL0 Copyright (c) Steve Scherf et al.
# Submitted via: audiograbber 1.83.01
#
DISCID=c4104f1e
DTITLE=Elvis Presley - 75th Anniversary
DYEAR=2010
DGENRE=Classic Rock
TTITLE0=Don't be cruel
TTITLE1=Let me be your teddybear
TTITLE2=All shook up
TTITLE3=A fool such as I
TTITLE4=I got stung
TTITLE5=A big hunk o' love
TTITLE6=Good rockin tonight
TTITLE7=I beg of you
TTITLE8=I need your love tonight
TTITLE9=Treat me nice
TTITLE10=Wear my ring around your neck
TTITLE11=One night
TTITLE12=Love me tender
TTITLE13=Don't
TTITLE14=Love me
TTITLE15=Too Much
TTITLE16=How do you think I feel
TTITLE17=Playing for keeps
TTITLE18=I was the one
TTITLE19=Paralyzed
TTITLE20=Jailhouse rock
TTITLE21=Heartbreak hotel
TTITLE22=Hound dog
TTITLE23=Blue suede shoes
TTITLE24=Hard headed woman
TTITLE25=That's all right mama
TTITLE26=My baby left me
TTITLE27=Loving you
TTITLE28=Any way you want me
TTITLE29=I forgot to remember to forget
EXTD=
EXTT0=
EXTT1=
EXTT2=
EXTT3=
EXTT4=
EXTT5=
EXTT6=
EXTT7=
EXTT8=
EXTT9=
EXTT10=
EXTT11=
EXTT12=
EXTT13=
EXTT14=
EXTT15=
EXTT16=
EXTT17=
EXTT18=
EXTT19=
EXTT20=
EXTT21=
EXTT22=
EXTT23=
EXTT24=
EXTT25=
EXTT26=
EXTT27=
EXTT28=
EXTT29=
PLAYORDER=
